# xmcd
#
# Track frame offsets:
#	150
#	26274
#	62286
#	103690
#	137903
#	173274
#	212050
#	225315
#	237283
#	249638
#	263377
#
# Disc length: 3698
#
# Revision: 3
# Processed by: cddbd v1.5.1PL0 Copyright (c) Steve Scherf et al.
# Submitted via: kTunes Pro (development) 1.0patch40.5
#
DISCID=7e0e700b
DTITLE=varios - Dansk 11
DYEAR=5
DGENRE=Dansk
TTITLE0=Gitte Henning - Tag med ud og fisk
TTITLE1=Ulla Pia - Flowerpower TojM/Flere
TTITLE2=Kim Larsen - Det Var En Lordag M/Flere
TTITLE3=Liva Weel - Gaa Med I Lunden M/Flere
TTITLE4=Jule hits - Jeg Saa Julemanden Kysse Mor M/flere
TTITLE5=Jodle Birge - Rigtige Venner M /Flere
TTITLE6=Julie Og Sofie - Vi Er Venner
TTITLE7=Tue - Ta´Mig Som Jeg Er
TTITLE8=Anne Gadegaard - Arabiens Drom
TTITLE9=B_Boys - Vi Gi´r Den Op
TTITLE10=Shout - Jeg Tror Det Kaldes Karlighed
EXTD=
EXTT0=
EXTT1=
EXTT2=
EXTT3=
EXTT4=
EXTT5=
EXTT6=
EXTT7=
EXTT8=
EXTT9=
EXTT10=
PLAYORDER=
